<svg width="25" height="24" viewBox="0 0 25 24" fill="none" xmlns="http://www.w3.org/2000/svg">
<path d="M10.3736 8.29289C9.98309 7.90237 9.34992 7.90237 8.9594 8.29289C8.56887 8.68342 8.56887 9.31658 8.9594 9.70711L10.3736 8.29289ZM14.9593 15.707C15.3498 16.0975 15.983 16.0975 16.3735 15.707C16.764 15.3165 16.764 14.6833 16.3735 14.2928L14.9593 15.707ZM8.9594 14.2929C8.56887 14.6834 8.56887 15.3166 8.9594 15.7071C9.34992 16.0976 9.98309 16.0976 10.3736 15.7071L8.9594 14.2929ZM16.3735 9.70723C16.764 9.3167 16.764 8.68354 16.3735 8.29302C15.983 7.90249 15.3498 7.90249 14.9593 8.29302L16.3735 9.70723ZM12.6665 20C8.24823 20 4.6665 16.4183 4.6665 12H2.6665C2.6665 17.5228 7.14366 22 12.6665 22V20ZM4.6665 12C4.6665 7.58172 8.24823 4 12.6665 4V2C7.14366 2 2.6665 6.47715 2.6665 12H4.6665ZM12.6665 4C17.0848 4 20.6665 7.58172 20.6665 12H22.6665C22.6665 6.47715 18.1894 2 12.6665 2V4ZM20.6665 12C20.6665 16.4183 17.0848 20 12.6665 20V22C18.1894 22 22.6665 17.5228 22.6665 12H20.6665ZM8.9594 9.70711L14.9593 15.707L16.3735 14.2928L10.3736 8.29289L8.9594 9.70711ZM10.3736 15.7071L16.3735 9.70723L14.9593 8.29302L8.9594 14.2929L10.3736 15.7071Z" fill="white"/>
</svg>
