<?xml version="1.0" encoding="utf-8"?>
<svg viewBox="0 0 163 50" xmlns="http://www.w3.org/2000/svg" xmlns:xlink="http://www.w3.org/1999/xlink">
	<style>
		:root>svg{display:none}:root>svg:target{display:block}
	</style>
	
	<svg id="category" width="20" height="20" viewBox="0 0 20 20" xmlns="http://www.w3.org/2000/svg">
		<path fill-rule="evenodd" clip-rule="evenodd" d="M2.54 0H5.92C7.33 0 8.46 1.15 8.46 2.561V5.97C8.46 7.39 7.33 8.53 5.92 8.53H2.54C1.14 8.53 0 7.39 0 5.97V2.561C0 1.15 1.14 0 2.54 0ZM2.54 11.4697H5.92C7.33 11.4697 8.46 12.6107 8.46 14.0307V17.4397C8.46 18.8497 7.33 19.9997 5.92 19.9997H2.54C1.14 19.9997 0 18.8497 0 17.4397V14.0307C0 12.6107 1.14 11.4697 2.54 11.4697ZM17.4601 0H14.0801C12.6701 0 11.5401 1.15 11.5401 2.561V5.97C11.5401 7.39 12.6701 8.53 14.0801 8.53H17.4601C18.8601 8.53 20.0001 7.39 20.0001 5.97V2.561C20.0001 1.15 18.8601 0 17.4601 0ZM14.0801 11.4697H17.4601C18.8601 11.4697 20.0001 12.6107 20.0001 14.0307V17.4397C20.0001 18.8497 18.8601 19.9997 17.4601 19.9997H14.0801C12.6701 19.9997 11.5401 18.8497 11.5401 17.4397V14.0307C11.5401 12.6107 12.6701 11.4697 14.0801 11.4697Z" />
	</svg>
	
	<svg id="chart" width="20" height="20" viewBox="0 0 20 20" xmlns="http://www.w3.org/2000/svg">
		<path fill-rule="evenodd" clip-rule="evenodd" d="M5.33049 0.000427246H14.6695C18.0705 0.000427246 19.9905 1.92943 20.0005 5.33043V14.6704C20.0005 18.0704 18.0705 20.0004 14.6695 20.0004H5.33049C1.92949 20.0004 0.000488281 18.0704 0.000488281 14.6704V5.33043C0.000488281 1.92943 1.92949 0.000427246 5.33049 0.000427246ZM10.0495 15.8604C10.4805 15.8604 10.8395 15.5404 10.8795 15.1104V4.92043C10.9195 4.61043 10.7705 4.29943 10.5005 4.13043C10.2195 3.96043 9.87949 3.96043 9.61049 4.13043C9.33949 4.29943 9.19049 4.61043 9.21949 4.92043V15.1104C9.27049 15.5404 9.62949 15.8604 10.0495 15.8604ZM14.6505 15.8604C15.0705 15.8604 15.4295 15.5404 15.4805 15.1104V11.8304C15.5095 11.5094 15.3605 11.2104 15.0895 11.0404C14.8205 10.8704 14.4805 10.8704 14.2005 11.0404C13.9295 11.2104 13.7805 11.5094 13.8205 11.8304V15.1104C13.8605 15.5404 14.2195 15.8604 14.6505 15.8604ZM6.21949 15.1104C6.17949 15.5404 5.82049 15.8604 5.38949 15.8604C4.95949 15.8604 4.59949 15.5404 4.56049 15.1104V8.20043C4.53049 7.88943 4.67949 7.58043 4.95049 7.41043C5.21949 7.24043 5.56049 7.24043 5.83049 7.41043C6.09949 7.58043 6.25049 7.88943 6.21949 8.20043V15.1104Z" />
	</svg>

	<svg id="document" width="18" height="20" viewBox="0 0 18 20" xmlns="http://www.w3.org/2000/svg">
		<path fill-rule="evenodd" clip-rule="evenodd" d="M4.81 0H13.191C16.28 0 18 1.78 18 4.83V15.16C18 18.26 16.28 20 13.191 20H4.81C1.77 20 0 18.26 0 15.16V4.83C0 1.78 1.77 0 4.81 0ZM5.08 4.66V4.65H8.069C8.5 4.65 8.85 5 8.85 5.429C8.85 5.87 8.5 6.22 8.069 6.22H5.08C4.649 6.22 4.3 5.87 4.3 5.44C4.3 5.01 4.649 4.66 5.08 4.66ZM5.08 10.74H12.92C13.35 10.74 13.7 10.39 13.7 9.96C13.7 9.53 13.35 9.179 12.92 9.179H5.08C4.649 9.179 4.3 9.53 4.3 9.96C4.3 10.39 4.649 10.74 5.08 10.74ZM5.08 15.31H12.92C13.319 15.27 13.62 14.929 13.62 14.53C13.62 14.12 13.319 13.78 12.92 13.74H5.08C4.78 13.71 4.49 13.85 4.33 14.11C4.17 14.36 4.17 14.69 4.33 14.95C4.49 15.2 4.78 15.35 5.08 15.31Z" />
	</svg>

	<svg id="more-square" width="20" height="20" viewBox="0 0 20 20" xmlns="http://www.w3.org/2000/svg">
		<path fill-rule="evenodd" clip-rule="evenodd" d="M5.67 -9.91821e-05H14.34C17.73 -9.91821e-05 20 2.3799 20 5.9199V14.0899C20 17.6199 17.73 19.9999 14.34 19.9999H5.67C2.28 19.9999 0 17.6199 0 14.0899V5.9199C0 2.3799 2.28 -9.91821e-05 5.67 -9.91821e-05ZM5.52 11.1999C4.86 11.1999 4.32 10.6599 4.32 9.9999C4.32 9.3399 4.86 8.8009 5.52 8.8009C6.18 8.8009 6.72 9.3399 6.72 9.9999C6.72 10.6599 6.18 11.1999 5.52 11.1999ZM8.8 9.9999C8.8 10.6599 9.34 11.1999 10 11.1999C10.66 11.1999 11.2 10.6599 11.2 9.9999C11.2 9.3399 10.66 8.8009 10 8.8009C9.34 8.8009 8.8 9.3399 8.8 9.9999ZM13.28 9.9999C13.28 10.6599 13.82 11.1999 14.48 11.1999C15.14 11.1999 15.67 10.6599 15.67 9.9999C15.67 9.3399 15.14 8.8009 14.48 8.8009C13.82 8.8009 13.28 9.3399 13.28 9.9999Z" />
	</svg>

	<svg id="wallet" width="20" height="18" viewBox="0 0 20 18" xmlns="http://www.w3.org/2000/svg">
		<path fill-rule="evenodd" clip-rule="evenodd" d="M15.7689 5.3818H20C20 1.98459 17.9644 0 14.5156 0H5.48444C2.03556 0 0 1.98459 0 5.33847V12.6615C0 16.0154 2.03556 18 5.48444 18H14.5156C17.9644 18 20 16.0154 20 12.6615V12.3495H15.7689C13.8052 12.3495 12.2133 10.7975 12.2133 8.883C12.2133 6.96849 13.8052 5.41647 15.7689 5.41647V5.3818ZM15.7689 6.87241H19.2533C19.6657 6.87241 20 7.19834 20 7.60039V10.131C19.9952 10.5311 19.6637 10.8543 19.2533 10.8589H15.8489C14.8548 10.872 13.9855 10.2084 13.76 9.26432C13.6471 8.67829 13.8056 8.07357 14.1931 7.61222C14.5805 7.15087 15.1573 6.88007 15.7689 6.87241ZM15.92 9.53298H16.2489C16.6711 9.53298 17.0133 9.1993 17.0133 8.78767C17.0133 8.37605 16.6711 8.04237 16.2489 8.04237H15.92C15.7181 8.04005 15.5236 8.11664 15.38 8.25504C15.2364 8.39344 15.1555 8.58213 15.1556 8.77901C15.1555 9.19205 15.4964 9.52823 15.92 9.53298ZM4.73778 5.3818H10.3822C10.8044 5.3818 11.1467 5.04812 11.1467 4.63649C11.1467 4.22487 10.8044 3.89119 10.3822 3.89119H4.73778C4.31903 3.89116 3.9782 4.2196 3.97333 4.62783C3.97331 5.04087 4.31415 5.37705 4.73778 5.3818Z" />
	</svg>

	<svg id="setting" width="20" height="20" viewBox="0 0 20 20" xmlns="http://www.w3.org/2000/svg">
		<path fill-rule="evenodd" clip-rule="evenodd" d="M18.4023 11.5801C18.76 11.7701 19.036 12.0701 19.2301 12.3701C19.6083 12.9901 19.5776 13.7501 19.2097 14.4201L18.4943 15.6201C18.1162 16.2601 17.411 16.6601 16.6855 16.6601C16.3278 16.6601 15.9292 16.5601 15.6022 16.3601C15.3365 16.1901 15.0299 16.1301 14.7029 16.1301C13.6911 16.1301 12.8429 16.9601 12.8122 17.9501C12.8122 19.1001 11.872 20.0001 10.6968 20.0001H9.30692C8.12145 20.0001 7.18125 19.1001 7.18125 17.9501C7.16081 16.9601 6.31259 16.1301 5.30085 16.1301C4.96361 16.1301 4.65702 16.1901 4.40153 16.3601C4.0745 16.5601 3.66572 16.6601 3.31825 16.6601C2.58245 16.6601 1.87729 16.2601 1.49917 15.6201L0.79402 14.4201C0.415896 13.7701 0.395456 12.9901 0.773581 12.3701C0.937094 12.0701 1.24368 11.7701 1.59115 11.5801C1.87729 11.4401 2.06125 11.2101 2.23498 10.9401C2.74596 10.0801 2.43937 8.95009 1.57071 8.44009C0.55897 7.87009 0.231943 6.60009 0.814459 5.61009L1.49917 4.43009C2.09191 3.44009 3.35913 3.09009 4.38109 3.67009C5.27019 4.15009 6.425 3.83009 6.9462 2.98009C7.10972 2.70009 7.20169 2.40009 7.18125 2.10009C7.16081 1.71009 7.27323 1.34009 7.4674 1.04009C7.84553 0.420092 8.53024 0.0200916 9.27627 9.15527e-05H10.7172C11.4735 9.15527e-05 12.1582 0.420092 12.5363 1.04009C12.7203 1.34009 12.8429 1.71009 12.8122 2.10009C12.7918 2.40009 12.8838 2.70009 13.0473 2.98009C13.5685 3.83009 14.7233 4.15009 15.6226 3.67009C16.6344 3.09009 17.9118 3.44009 18.4943 4.43009L19.179 5.61009C19.7718 6.60009 19.4447 7.87009 18.4228 8.44009C17.5541 8.95009 17.2475 10.0801 17.7687 10.9401C17.9322 11.2101 18.1162 11.4401 18.4023 11.5801ZM7.10972 10.0101C7.10972 11.5801 8.4076 12.8301 10.0121 12.8301C11.6165 12.8301 12.8838 11.5801 12.8838 10.0101C12.8838 8.44009 11.6165 7.18009 10.0121 7.18009C8.4076 7.18009 7.10972 8.44009 7.10972 10.0101Z" />
	</svg>

	<svg id="error" width="14" height="15" viewBox="0 0 14 15" xmlns="http://www.w3.org/2000/svg">
		<path d="M6.3335 9.50001H7.66683V10.8333H6.3335V9.50001ZM6.3335 4.16668H7.66683V8.16668H6.3335V4.16668ZM6.9935 0.833344C3.3135 0.833344 0.333496 3.82001 0.333496 7.50001C0.333496 11.18 3.3135 14.1667 6.9935 14.1667C10.6802 14.1667 13.6668 11.18 13.6668 7.50001C13.6668 3.82001 10.6802 0.833344 6.9935 0.833344ZM7.00016 12.8333C4.0535 12.8333 1.66683 10.4467 1.66683 7.50001C1.66683 4.55334 4.0535 2.16668 7.00016 2.16668C9.94683 2.16668 12.3335 4.55334 12.3335 7.50001C12.3335 10.4467 9.94683 12.8333 7.00016 12.8333Z"/>
	</svg>

	<svg id="document-copy" width="32" height="33" viewBox="0 0 32 33" xmlns="http://www.w3.org/2000/svg">
		<path d="M20.6665 18.0333H17.7732C15.3998 18.0333 13.4665 16.1133 13.4665 13.7267V10.8333C13.4665 10.2867 13.0265 9.83334 12.4665 9.83334H8.23984C5.15984 9.83334 2.6665 11.8333 2.6665 15.4067V24.26C2.6665 27.8333 5.15984 29.8333 8.23984 29.8333H16.0932C19.1732 29.8333 21.6665 27.8333 21.6665 24.26V19.0333C21.6665 18.4733 21.2132 18.0333 20.6665 18.0333Z" fill="#2A6631" />
		<path d="M23.76 3.16666H21.1333H19.68H15.9067C12.8933 3.16666 10.4533 5.08666 10.3467 8.51332C10.4267 8.51332 10.4933 8.49999 10.5733 8.49999H14.3467H15.8H18.4267C21.5067 8.49999 24 10.5 24 14.0733V16.7V20.3133V22.94C24 23.02 23.9867 23.0867 23.9867 23.1533C26.96 23.06 29.3333 21.0867 29.3333 17.6067V14.98V11.3667V8.73999C29.3333 5.16666 26.84 3.16666 23.76 3.16666Z" fill="#2A6631" />
		<path d="M15.9735 10.0333C15.5602 9.62 14.8535 9.9 14.8535 10.4733V13.9667C14.8535 15.4333 16.0935 16.6333 17.6135 16.6333C18.5602 16.6467 19.8802 16.6467 21.0135 16.6467C21.5868 16.6467 21.8802 15.98 21.4802 15.58C20.0268 14.1267 17.4402 11.5267 15.9735 10.0333Z" fill="#2A6631"/>
	</svg>


</svg>
